#!OML:ASF F:\VICON\USERDATA\INSTALL\rory3\rory3.ASF
:FULLY-SPECIFIED
:DEGREES
2903
root -0.150068 17.0634 -1.74812 7.85219 -30.8608 27.4332
lowerback 18.5015 -8.16977 5.56112
upperback 7.93999 -9.54094 13.4715
thorax 0.108479 -5.11146 13.5896
lowerneck -20.1867 -9.12673 -13.0636
upperneck 26.8556 -12.0659 10.3038
head 14.0179 -5.24461 4.03996
rclavicle -7.95139e-014 1.25632e-013
rhumerus 43.3077 -10.7513 -44.4517
rradius 31.4304
rwrist 27.5146
rhand -27.0717 3.66218
rfingers 7.12502
rthumb -0.489343 -26.317
lclavicle -7.95139e-014 1.25632e-013
lhumerus 66.4775 -41.8851 56.7141
lradius 42.6549
lwrist -10.4748
lhand -18.8042 18.445
lfingers 7.12502
lthumb 7.49418 48.2923
rfemur -48.8646 12.3926 -33.3057
rtibia 38.1827
rfoot -13.1984 -3.31097
rtoes -8.07066
lfemur -29.1668 24.2309 -52.5729
ltibia 26.7547
lfoot -14.8011 6.96857
ltoes -19.1242
2904
root -0.152492 17.0589 -1.75093 7.92766 -31.0982 27.5864
lowerback 18.5608 -8.14965 5.57111
upperback 8.10396 -9.53333 13.4813
thorax 0.262895 -5.11773 13.5909
lowerneck -20.6401 -9.05935 -12.8241
upperneck 26.9516 -12.0389 10.4208
head 14.1424 -5.17715 4.04506
rclavicle 8.26944e-014 -4.77083e-014
rhumerus 43.815 -10.6856 -44.5215
rradius 31.2643
rwrist 27.4127
rhand -27.5718 2.46304
rfingers 7.12502
rthumb -0.972397 -27.5145
lclavicle 8.26944e-014 -4.77083e-014
lhumerus 66.8764 -41.6227 56.3507
lradius 42.5848
lwrist -10.4593
lhand -18.2965 19.21
lfingers 7.12502
lthumb 7.98419 49.0392
rfemur -49.1896 12.3402 -33.5363
rtibia 38.2107
rfoot -13.1956 -3.25116
rtoes -7.81795
lfemur -29.4374 24.2778 -52.8211
ltibia 26.7629
lfoot -14.8225 6.99698
ltoes -18.942
2905
root -0.154745 17.0532 -1.7564 7.9908 -31.4185 27.7546
lowerback 18.6228 -8.0371 5.62334
upperback 8.15597 -9.37986 13.5128
thorax 0.257264 -5.04207 13.5802
lowerneck -20.6513 -9.07826 -12.8731
upperneck 26.8625 -12.0984 10.6125
head 14.1359 -5.18245 4.117
rclavicle -1.59028e-014 -1.20066e-013
rhumerus 44.1518 -10.7853 -44.6371
rradius 30.9877
rwrist 27.6029
rhand -27.8193 1.97159
rfingers 7.12502
rthumb -1.21139 -28.0047
lclavicle -1.59028e-014 -1.20066e-013
lhumerus 67.4809 -41.6781 55.6346
lradius 42.7323
lwrist -10.0464
lhand -18.501 19.7031
lfingers 7.12502
lthumb 7.78683 49.5397
rfemur -49.6088 12.3361 -33.8101
rtibia 38.2395
rfoot -13.1467 -3.22339
rtoes -7.58508
lfemur -29.7564 24.411 -53.1186
ltibia 26.7786
lfoot -14.8142 7.01917
ltoes -18.9885
2906
root -0.156655 17.0482 -1.7605 7.93997 -31.6809 27.9519
lowerback 18.8133 -7.97661 5.67649
upperback 8.12355 -9.2583 13.5668
thorax 0.102745 -4.9775 13.6329
lowerneck -20.4548 -9.06537 -13.0466
upperneck 26.7883 -12.085 10.7588
head 14.0867 -5.18354 4.21203
rclavicle 1.01778e-013 -1.90833e-014
rhumerus 44.4911 -11.0645 -44.9814
rradius 30.523
rwrist 27.929
rhand -27.0501 2.61631
rfingers 7.12502
rthumb -0.468448 -27.3629
lclavicle 1.01778e-013 -1.90833e-014
lhumerus 67.5972 -41.7564 55.5784
lradius 42.799
lwrist -10.2527
lhand -18.3132 19.1902
lfingers 7.12502
lthumb 7.96806 49.02
rfemur -49.8988 12.3897 -34.0854
rtibia 38.2663
rfoot -13.0884 -3.1582
rtoes -7.76127
lfemur -29.9376 24.493 -53.3502
ltibia 26.8159
lfoot -14.8499 7.08113
ltoes -18.992
2907
root -0.159466 17.0427 -1.76219 7.81352 -31.8859 28.1602
lowerback 19.0605 -7.96021 5.6924
upperback 8.14873 -9.20056 13.5815
thorax -0.00504906 -4.94731 13.6748
lowerneck -20.375 -9.01841 -13.0167
upperneck 26.7408 -12.0419 10.79
head 14.0431 -5.1615 4.22987
rclavicle -9.22361e-014 9.54166e-014
rhumerus 44.8543 -11.3463 -45.4709
rradius 30.1162
rwrist 28.3868
rhand -26.5592 3.15868
rfingers 7.12502
rthumb 0.00569072 -26.8211
lclavicle -9.22361e-014 9.54166e-014
lhumerus 67.5627 -41.7647 55.9687
lradius 42.5785
lwrist -10.9894
lhand -17.1196 18.2809
lfingers 7.12502
lthumb 9.11992 48.0637
rfemur -50.0737 12.4808 -34.3365
rtibia 38.2965
rfoot -13.0594 -3.10568
rtoes -7.80074
lfemur -30.0331 24.6276 -53.5612
ltibia 26.8628
lfoot -14.884 7.12391
ltoes -19.1585
2908
root -0.161554 17.0379 -1.76442 7.8037 -32.1495 28.2978
lowerback 19.1954 -7.91079 5.68781
upperback 8.23852 -9.13445 13.6057
thorax 0.0209147 -4.9204 13.7121
lowerneck -20.5303 -8.99789 -12.8761
upperneck 26.7472 -12.0286 10.7558
head 14.0627 -5.13965 4.19161
rclavicle 2.8625e-014 1.59028e-014
rhumerus 45.2029 -11.4242 -45.7118
rradius 29.8652
rwrist 28.5892
rhand -26.6229 2.63437
rfingers 7.12502
rthumb -0.0559175 -27.3454
lclavicle 2.8625e-014 1.59028e-014
lhumerus 67.6444 -41.6452 56.0669
lradius 42.4683
lwrist -11.3036
lhand -16.1288 17.615
lfingers 7.12502
lthumb 10.0759 47.3537
rfemur -50.3518 12.4643 -34.5001
rtibia 38.3208
rfoot -12.9725 -3.02198
rtoes -7.8596
lfemur -30.2477 24.8036 -53.7782
ltibia 26.9132
lfoot -14.9286 7.10966
ltoes -19.0064
2909
root -0.164201 17.0332 -1.76997 7.82879 -32.4749 28.3831
lowerback 19.339 -7.84225 5.66161
upperback 8.35736 -9.05322 13.6511
thorax 0.080495 -4.8908 13.7842
lowerneck -20.7885 -8.96611 -12.7118
upperneck 26.7587 -11.9664 10.6388
head 14.0899 -5.10137 4.12303
rclavicle 2.22639e-014 3.49861e-014
rhumerus 45.5115 -11.3651 -45.7621
rradius 29.7112
rwrist 28.4988
rhand -26.6012 2.37287
rfingers 7.12502
rthumb -0.0349082 -27.6069
lclavicle 2.22639e-014 3.49861e-014
lhumerus 67.7375 -41.5353 55.976
lradius 42.4611
lwrist -11.0715
lhand -16.4489 16.9629
lfingers 7.12502
lthumb 9.76706 46.7164
rfemur -50.7129 12.5002 -34.6555
rtibia 38.3419
rfoot -12.873 -2.96285
rtoes -7.68877
lfemur -30.5 24.9994 -53.9663
ltibia 26.9618
lfoot -14.9698 7.09831
ltoes -18.6961
2910
root -0.166632 17.0293 -1.77284 7.81569 -32.7398 28.4654
lowerback 19.512 -7.83103 5.70666
upperback 8.45172 -9.0227 13.662
thorax 0.0897214 -4.87919 13.7894
lowerneck -20.9206 -8.92567 -12.6266
upperneck 26.6889 -11.9209 10.6747
head 14.0775 -5.06452 4.12798
rclavicle 9.54166e-014 1.98785e-014
rhumerus 45.7697 -11.2086 -45.7786
rradius 29.5768
rwrist 28.4523
rhand -26.2899 2.26169
rfingers 7.12502
rthumb 0.265717 -27.7179
lclavicle 9.54166e-014 1.98785e-014
lhumerus 67.8015 -41.617 56.0982
lradius 42.237
lwrist -10.8555
lhand -17.2576 17.5425
lfingers 7.12502
lthumb 8.98677 47.3311
rfemur -50.9731 12.5398 -34.7777
rtibia 38.352
rfoot -12.823 -2.9088
rtoes -7.66553
lfemur -30.6723 25.1459 -54.1116
ltibia 27.006
lfoot -15.0398 7.07496
ltoes -18.5896
